<?xml version="1.0" standalone="no"?>
<!DOCTYPE svg PUBLIC "-//W3C//DTD SVG 20010904//EN"
 "http://www.w3.org/TR/2001/REC-SVG-20010904/DTD/svg10.dtd">
<svg version="1.0" xmlns="http://www.w3.org/2000/svg"
 width="2048.000000pt" height="2048.000000pt" viewBox="0 0 2048.000000 2048.000000"
 preserveAspectRatio="xMidYMid meet">
<metadata>
Created by potrace 1.14, written by Peter Selinger 2001-2017
</metadata>
<g transform="translate(0.000000,2048.000000) scale(0.100000,-0.100000)"
fill="#000000" stroke="none">
<path d="M9848 20475 c-2 -2 -68 -6 -148 -10 -80 -3 -161 -8 -180 -10 -19 -2
-71 -6 -115 -9 -84 -7 -130 -11 -230 -22 -33 -3 -73 -7 -90 -9 -35 -3 -125
-13 -175 -21 -19 -2 -51 -7 -70 -9 -63 -8 -105 -15 -125 -19 -11 -2 -45 -7
-75 -11 -30 -4 -64 -9 -75 -11 -11 -2 -72 -13 -135 -24 -63 -11 -180 -34 -260
-51 -80 -17 -156 -33 -170 -35 -49 -9 -396 -96 -500 -125 -166 -46 -169 -47
-290 -85 -225 -71 -503 -167 -635 -220 -311 -124 -438 -177 -593 -250 -52 -24
-96 -44 -98 -44 -6 0 -328 -161 -441 -221 -377 -199 -790 -456 -1141 -708 -74
-53 -144 -103 -155 -111 -19 -13 -236 -180 -277 -213 -9 -6 -49 -39 -90 -72
-41 -33 -88 -72 -105 -86 -16 -15 -68 -59 -115 -99 -304 -260 -713 -661 -966
-950 -21 -24 -46 -51 -54 -60 -8 -8 -49 -56 -90 -105 -41 -50 -78 -92 -81 -95
-6 -4 -175 -215 -237 -295 -59 -76 -228 -306 -265 -360 -22 -33 -43 -62 -46
-65 -19 -16 -337 -513 -401 -625 -11 -19 -30 -52 -42 -72 -94 -162 -198 -355
-302 -563 -105 -211 -152 -312 -246 -525 -221 -498 -440 -1175 -578 -1780 -46
-199 -120 -594 -137 -725 -3 -25 -8 -56 -10 -70 -5 -30 -13 -89 -20 -150 -3
-25 -7 -61 -10 -80 -3 -19 -7 -53 -10 -75 -2 -22 -7 -71 -11 -110 -11 -116
-12 -127 -19 -215 -4 -47 -8 -99 -10 -116 -26 -225 -26 -1199 0 -1449 3 -22 7
-76 10 -120 3 -44 7 -98 10 -120 2 -22 7 -67 10 -100 9 -91 15 -143 26 -225 5
-42 12 -94 14 -115 3 -22 7 -51 10 -65 5 -23 10 -59 20 -135 6 -46 59 -343 69
-390 1 -5 5 -23 9 -40 4 -16 9 -42 12 -57 13 -68 17 -87 32 -153 24 -109 103
-427 113 -460 5 -16 33 -109 61 -205 233 -798 564 -1553 1028 -2345 10 -16 50
-81 90 -143 39 -63 71 -116 71 -118 0 -5 41 -66 50 -74 3 -3 30 -43 60 -90 29
-47 56 -87 60 -90 3 -3 30 -41 60 -85 126 -187 504 -680 580 -755 3 -3 30 -34
60 -70 30 -36 57 -67 60 -70 3 -3 25 -27 49 -55 236 -266 593 -623 846 -846
28 -24 52 -47 55 -50 11 -11 269 -227 340 -283 41 -33 77 -63 80 -66 6 -7 313
-238 346 -260 12 -8 86 -60 165 -115 79 -55 165 -113 191 -130 26 -16 113 -72
193 -123 80 -51 160 -101 178 -111 17 -10 70 -41 117 -68 225 -133 635 -346
880 -457 47 -22 108 -49 135 -61 28 -13 106 -46 175 -75 69 -28 145 -60 170
-70 197 -84 713 -258 1015 -342 208 -58 481 -125 600 -148 28 -6 59 -12 70
-14 143 -30 311 -62 365 -70 19 -3 46 -8 60 -10 14 -2 48 -8 75 -12 28 -4 57
-8 65 -10 16 -3 85 -13 138 -20 17 -2 47 -6 65 -8 39 -6 99 -13 260 -31 93
-10 156 -16 232 -20 44 -3 98 -7 120 -10 241 -26 1107 -27 1435 -1 25 2 81 7
125 10 44 4 94 8 110 10 17 2 62 7 100 11 39 3 88 8 110 11 22 2 63 6 90 9 28
3 61 8 75 10 14 2 45 7 70 10 25 3 56 8 70 10 14 3 45 7 70 10 53 7 341 56
410 70 14 3 36 7 50 10 33 6 44 9 190 39 284 60 821 208 1055 290 166 59 234
83 330 118 61 22 119 43 130 48 11 5 97 40 190 78 94 39 199 83 235 100 36 16
99 44 140 62 144 63 627 310 772 395 33 19 63 35 69 35 5 0 9 5 9 10 0 6 4 10
10 10 13 0 259 149 450 274 908 590 1729 1334 2405 2176 55 69 105 130 110
136 81 94 469 649 571 817 16 27 36 59 44 72 8 13 46 74 83 137 38 62 72 120
77 128 126 204 361 673 540 1075 126 283 302 772 406 1125 25 85 52 176 60
202 40 130 156 633 179 778 4 19 10 54 16 78 5 23 12 59 14 80 3 20 8 48 11
62 2 14 6 36 9 50 3 14 7 43 10 65 3 22 7 51 9 65 3 14 10 61 16 105 6 44 13
91 15 105 2 14 7 54 10 90 4 36 8 72 10 80 5 26 17 154 30 315 3 44 8 103 10
130 27 321 27 1077 0 1430 -3 33 -7 89 -10 125 -3 36 -7 94 -10 130 -3 36 -7
79 -10 95 -2 17 -7 61 -11 100 -3 38 -8 78 -10 88 -2 11 -6 45 -10 76 -3 31
-8 65 -10 75 -2 11 -8 56 -14 100 -18 130 -47 302 -85 491 -13 66 -27 135 -30
154 -3 19 -8 37 -10 41 -2 4 -7 22 -10 41 -7 44 -102 430 -120 489 -8 25 -35
117 -60 205 -118 402 -299 890 -480 1290 -34 76 -305 621 -348 700 -84 155
-396 670 -430 710 -4 6 -27 39 -50 74 -23 34 -49 73 -57 86 -115 173 -535 728
-579 765 -4 3 -26 30 -51 60 -46 56 -60 72 -169 195 -235 264 -545 576 -805
810 -121 109 -301 262 -411 350 -27 22 -52 43 -55 46 -3 3 -84 65 -180 137
-96 73 -179 136 -185 140 -23 19 -286 201 -350 243 -188 123 -430 276 -465
292 -8 4 -28 16 -45 26 -48 29 -208 121 -211 121 -2 0 -50 25 -106 56 -176 97
-533 272 -668 329 -36 15 -92 40 -125 55 -251 117 -845 329 -1200 429 -60 17
-132 38 -160 46 -39 11 -356 90 -445 110 -24 6 -362 74 -395 80 -16 2 -43 7
-60 10 -102 19 -183 32 -245 40 -25 3 -56 8 -70 10 -14 3 -47 7 -75 10 -27 3
-61 8 -75 10 -72 10 -110 15 -160 20 -30 3 -71 7 -90 10 -19 2 -69 7 -110 10
-41 4 -86 8 -100 10 -14 2 -74 7 -135 10 -60 4 -132 9 -160 11 -60 5 -952 13
-957 9z"/>
</g>
</svg>
